<mxfile host="app.diagrams.net" modified="2022-07-20T02:54:43.327Z" agent="5.0 (X11; Linux x86_64) AppleWebKit/537.36 (KHTML, like Gecko) Chrome/101.0.4951.54 Safari/537.36 Edg/101.0.1210.39" etag="o3rJDJxudR9FXxlp9WVd" version="20.1.1" type="github">
  <diagram name="Page-1" id="c37626ed-c26b-45fb-9056-f9ebc6bb27b6">
    <mxGraphModel dx="1422" dy="731" grid="1" gridSize="10" guides="1" tooltips="1" connect="1" arrows="1" fold="1" page="1" pageScale="1" pageWidth="1100" pageHeight="850" background="none" math="0" shadow="0">
      <root>
        <mxCell id="0" />
        <mxCell id="1" parent="0" />
        <mxCell id="1GOq2P0RvH6hPtLiv6r3-9" value="" style="edgeStyle=orthogonalEdgeStyle;rounded=0;orthogonalLoop=1;jettySize=auto;html=1;" edge="1" parent="1" source="1GOq2P0RvH6hPtLiv6r3-5" target="1GOq2P0RvH6hPtLiv6r3-14">
          <mxGeometry relative="1" as="geometry">
            <mxPoint x="360" y="150" as="targetPoint" />
          </mxGeometry>
        </mxCell>
        <mxCell id="1GOq2P0RvH6hPtLiv6r3-5" value="路由器A&lt;br&gt;公网ip：192.1.1.1" style="rounded=0;whiteSpace=wrap;html=1;" vertex="1" parent="1">
          <mxGeometry x="160" y="120" width="120" height="60" as="geometry" />
        </mxCell>
        <mxCell id="1GOq2P0RvH6hPtLiv6r3-7" style="edgeStyle=orthogonalEdgeStyle;rounded=0;orthogonalLoop=1;jettySize=auto;html=1;entryX=0.75;entryY=1;entryDx=0;entryDy=0;" edge="1" parent="1" source="1GOq2P0RvH6hPtLiv6r3-6" target="1GOq2P0RvH6hPtLiv6r3-5">
          <mxGeometry relative="1" as="geometry" />
        </mxCell>
        <mxCell id="1GOq2P0RvH6hPtLiv6r3-6" value="终端A&lt;br&gt;192.168.130.215" style="rounded=0;whiteSpace=wrap;html=1;" vertex="1" parent="1">
          <mxGeometry x="200" y="250" width="100" height="50" as="geometry" />
        </mxCell>
        <mxCell id="1GOq2P0RvH6hPtLiv6r3-11" style="edgeStyle=orthogonalEdgeStyle;rounded=0;orthogonalLoop=1;jettySize=auto;html=1;entryX=0.25;entryY=1;entryDx=0;entryDy=0;" edge="1" parent="1" source="1GOq2P0RvH6hPtLiv6r3-10" target="1GOq2P0RvH6hPtLiv6r3-5">
          <mxGeometry relative="1" as="geometry" />
        </mxCell>
        <mxCell id="1GOq2P0RvH6hPtLiv6r3-10" value="终端B&lt;br&gt;192.168.130.211" style="rounded=0;whiteSpace=wrap;html=1;" vertex="1" parent="1">
          <mxGeometry x="140" y="330" width="100" height="50" as="geometry" />
        </mxCell>
        <mxCell id="1GOq2P0RvH6hPtLiv6r3-12" value="LAN" style="text;html=1;align=center;verticalAlign=middle;resizable=0;points=[];autosize=1;strokeColor=none;fillColor=none;" vertex="1" parent="1">
          <mxGeometry x="195" y="180" width="50" height="30" as="geometry" />
        </mxCell>
        <mxCell id="1GOq2P0RvH6hPtLiv6r3-13" value="WAN&lt;br&gt;" style="text;html=1;align=center;verticalAlign=middle;resizable=0;points=[];autosize=1;strokeColor=none;fillColor=none;" vertex="1" parent="1">
          <mxGeometry x="280" y="120" width="50" height="30" as="geometry" />
        </mxCell>
        <mxCell id="1GOq2P0RvH6hPtLiv6r3-17" value="" style="edgeStyle=orthogonalEdgeStyle;rounded=0;orthogonalLoop=1;jettySize=auto;html=1;" edge="1" parent="1" source="1GOq2P0RvH6hPtLiv6r3-14" target="1GOq2P0RvH6hPtLiv6r3-16">
          <mxGeometry relative="1" as="geometry" />
        </mxCell>
        <mxCell id="1GOq2P0RvH6hPtLiv6r3-14" value="Internet" style="ellipse;shape=cloud;whiteSpace=wrap;html=1;rounded=0;" vertex="1" parent="1">
          <mxGeometry x="360" y="110" width="120" height="80" as="geometry" />
        </mxCell>
        <mxCell id="1GOq2P0RvH6hPtLiv6r3-16" value="服务器" style="whiteSpace=wrap;html=1;rounded=0;" vertex="1" parent="1">
          <mxGeometry x="560" y="120" width="120" height="60" as="geometry" />
        </mxCell>
      </root>
    </mxGraphModel>
  </diagram>
</mxfile>
